G04 Layer: BottomLayer*
G04 EasyEDA v6.5.1, 2022-07-07 22:09:08*
G04 a67cddfb3fce44daa9051d46cbbcc19f,10*
G04 Gerber Generator version 0.2*
G04 Scale: 100 percent, Rotated: No, Reflected: No *
G04 Dimensions in millimeters *
G04 leading zeros omitted , absolute positions ,4 integer and 5 decimal *
%FSLAX45Y45*%
%MOMM*%

%ADD11C,0.2600*%
%ADD12R,3.0000X0.4000*%
%ADD13R,2.8000X1.0000*%
%ADD14R,1.5748X1.5748*%
%ADD15C,1.5748*%

%LPD*%
G36*
X962050Y876401D02*
G01*
X957986Y878128D01*
X955040Y881430D01*
X953719Y886663D01*
X951077Y900074D01*
X946658Y913028D01*
X940612Y925321D01*
X932992Y936701D01*
X924001Y946962D01*
X913688Y956005D01*
X902309Y963625D01*
X890016Y969670D01*
X877062Y974039D01*
X863650Y976731D01*
X849985Y977646D01*
X836320Y976731D01*
X822909Y974039D01*
X814832Y971296D01*
X811123Y970787D01*
X807466Y971651D01*
X804367Y973734D01*
X500786Y1277112D01*
X494538Y1282242D01*
X487832Y1285849D01*
X480517Y1288034D01*
X472440Y1288846D01*
X321208Y1288846D01*
X318414Y1289253D01*
X314198Y1291386D01*
X311251Y1294231D01*
X309676Y1297940D01*
X309676Y1302054D01*
X311251Y1305763D01*
X314198Y1308608D01*
X316128Y1309776D01*
X320192Y1313891D01*
X323291Y1318768D01*
X325170Y1324254D01*
X325932Y1330553D01*
X325932Y1333652D01*
X231343Y1333652D01*
X231343Y1306068D01*
X230581Y1302156D01*
X228396Y1298905D01*
X225094Y1296670D01*
X221183Y1295908D01*
X78790Y1295908D01*
X74930Y1296670D01*
X71628Y1298905D01*
X69443Y1302156D01*
X68630Y1306068D01*
X68630Y1333652D01*
X36068Y1333652D01*
X32156Y1334414D01*
X28905Y1336598D01*
X26670Y1339900D01*
X25908Y1343812D01*
X25908Y1356207D01*
X26670Y1360068D01*
X28905Y1363370D01*
X32156Y1365554D01*
X36068Y1366367D01*
X68630Y1366367D01*
X68630Y1393952D01*
X69443Y1397812D01*
X71628Y1401114D01*
X74930Y1403299D01*
X78790Y1404112D01*
X221183Y1404112D01*
X225094Y1403299D01*
X228396Y1401114D01*
X230581Y1397812D01*
X231343Y1393952D01*
X231343Y1366367D01*
X325932Y1366367D01*
X325932Y1369415D01*
X325170Y1375765D01*
X323291Y1381201D01*
X320192Y1386128D01*
X316128Y1390192D01*
X314198Y1391412D01*
X311251Y1394206D01*
X309676Y1397965D01*
X309676Y1402029D01*
X311251Y1405788D01*
X314198Y1408582D01*
X316128Y1409801D01*
X320192Y1413865D01*
X323291Y1418793D01*
X325170Y1424228D01*
X325932Y1430578D01*
X325932Y1469440D01*
X325170Y1475740D01*
X323291Y1481226D01*
X320192Y1486103D01*
X316128Y1490218D01*
X311200Y1493266D01*
X305765Y1495196D01*
X299415Y1495907D01*
X36068Y1495907D01*
X32156Y1496669D01*
X28905Y1498904D01*
X26670Y1502156D01*
X25908Y1506067D01*
X25908Y1588922D01*
X26670Y1592834D01*
X28905Y1596136D01*
X32156Y1598320D01*
X36068Y1599082D01*
X289407Y1599082D01*
X295757Y1599793D01*
X301193Y1601724D01*
X306120Y1604822D01*
X310184Y1608886D01*
X313283Y1613814D01*
X315163Y1619250D01*
X315874Y1625549D01*
X315874Y1724456D01*
X315163Y1730756D01*
X313283Y1736191D01*
X310184Y1741119D01*
X306120Y1745183D01*
X301193Y1748282D01*
X295757Y1750212D01*
X289407Y1750923D01*
X36068Y1750923D01*
X32156Y1751685D01*
X28905Y1753870D01*
X26670Y1757172D01*
X25908Y1761083D01*
X25908Y1963928D01*
X26670Y1967839D01*
X28905Y1971141D01*
X32156Y1973325D01*
X36068Y1974088D01*
X963930Y1974088D01*
X967841Y1973325D01*
X971092Y1971141D01*
X973328Y1967839D01*
X974090Y1963928D01*
X974090Y1467510D01*
X973277Y1463548D01*
X970991Y1460195D01*
X967587Y1458010D01*
X963574Y1457350D01*
X959612Y1458315D01*
X956360Y1460754D01*
X954328Y1464208D01*
X951992Y1470964D01*
X948944Y1475841D01*
X944829Y1479956D01*
X939952Y1483004D01*
X934516Y1484934D01*
X928166Y1485646D01*
X895705Y1485646D01*
X895705Y1426718D01*
X963930Y1426718D01*
X967841Y1425956D01*
X971092Y1423720D01*
X973328Y1420469D01*
X974090Y1416558D01*
X974090Y1345438D01*
X973328Y1341577D01*
X971092Y1338275D01*
X967841Y1336040D01*
X963930Y1335278D01*
X895705Y1335278D01*
X895705Y1276350D01*
X928166Y1276350D01*
X934516Y1277061D01*
X939952Y1278991D01*
X944829Y1282039D01*
X948944Y1286154D01*
X951992Y1291031D01*
X954328Y1297787D01*
X956360Y1301292D01*
X959612Y1303680D01*
X963574Y1304645D01*
X967587Y1303985D01*
X970991Y1301800D01*
X973277Y1298448D01*
X974090Y1294485D01*
X974090Y1140358D01*
X973124Y1136040D01*
X970432Y1132535D01*
X966469Y1130554D01*
X962050Y1130401D01*
X957986Y1132128D01*
X955040Y1135430D01*
X953719Y1140663D01*
X951077Y1154074D01*
X946658Y1167028D01*
X940612Y1179322D01*
X932992Y1190701D01*
X924001Y1200962D01*
X913688Y1210005D01*
X902309Y1217625D01*
X890016Y1223670D01*
X877062Y1228039D01*
X863650Y1230731D01*
X849985Y1231646D01*
X836320Y1230731D01*
X822909Y1228039D01*
X809955Y1223670D01*
X797712Y1217625D01*
X786333Y1210005D01*
X776020Y1200962D01*
X766978Y1190701D01*
X759409Y1179322D01*
X753364Y1167028D01*
X748944Y1154074D01*
X746252Y1140663D01*
X745388Y1126998D01*
X746252Y1113332D01*
X748944Y1099921D01*
X753364Y1086967D01*
X759409Y1074674D01*
X766978Y1063294D01*
X776020Y1053033D01*
X786333Y1043990D01*
X797712Y1036370D01*
X809955Y1030325D01*
X822909Y1025956D01*
X836320Y1023264D01*
X849985Y1022350D01*
X863650Y1023264D01*
X877062Y1025956D01*
X890016Y1030325D01*
X902309Y1036370D01*
X913688Y1043990D01*
X924001Y1053033D01*
X932992Y1063294D01*
X940612Y1074674D01*
X946658Y1086967D01*
X951077Y1099921D01*
X953719Y1113332D01*
X955040Y1118565D01*
X957986Y1121867D01*
X962050Y1123594D01*
X966469Y1123492D01*
X970432Y1121460D01*
X973124Y1117955D01*
X974090Y1113637D01*
X974090Y886358D01*
X973124Y882040D01*
X970432Y878535D01*
X966469Y876553D01*
G37*

%LPC*%
G36*
X771855Y1276350D02*
G01*
X804265Y1276350D01*
X804265Y1335278D01*
X745337Y1335278D01*
X745337Y1302816D01*
X746048Y1296517D01*
X747979Y1291031D01*
X751078Y1286154D01*
X755142Y1282039D01*
X760069Y1278991D01*
X765505Y1277061D01*
G37*
G36*
X745337Y1426718D02*
G01*
X804265Y1426718D01*
X804265Y1485646D01*
X771855Y1485646D01*
X765505Y1484934D01*
X760069Y1483004D01*
X755142Y1479956D01*
X751078Y1475841D01*
X747979Y1470964D01*
X746048Y1465478D01*
X745337Y1459179D01*
G37*

%LPD*%
D11*
X150113Y1249934D02*
G01*
X472947Y1249934D01*
X850137Y872997D01*
X150113Y1249934D02*
G01*
X472947Y1249934D01*
X850137Y872997D01*
X150113Y1249934D02*
G01*
X472947Y1249934D01*
X850137Y872997D01*
D12*
G01*
X150012Y1450009D03*
G01*
X150012Y1350010D03*
G01*
X150012Y1250010D03*
G01*
X150012Y1150010D03*
G01*
X150012Y1050010D03*
G01*
X150012Y950010D03*
G01*
X150012Y850011D03*
G01*
X150012Y750011D03*
G01*
X150012Y650011D03*
G01*
X150012Y550011D03*
D13*
G01*
X150012Y1675003D03*
G01*
X150012Y324993D03*
D14*
G01*
X850011Y1380997D03*
D15*
G01*
X850011Y1126997D03*
G01*
X850011Y872997D03*
G01*
X850011Y618997D03*
M02*
