<?xml version="1.0" encoding="utf-8" standalone="no"?><svg xmlns="http://www.w3.org/2000/svg" xmlns:xlink="http://www.w3.org/1999/xlink" width="25.4mm" height="25.4mm" viewBox="4010 3360.8 100 100"><title>Photo View</title><rect x="4010" y="3360.8" width="100" height="100" fill="#000000" stroke="none"/><defs xmlns="http://www.w3.org/2000/svg" id="patterns"><pattern id="gridPattern" x="4000" y="3000" width="10" height="10" patternUnits="userSpaceOnUse"><rect id="gridCell" x="0" y="0" width="0.1852" height="0.1852" fill="#FFFFFF" stroke="none"/></pattern><pattern id="gridPattern2" x="4000.1852" y="3000.1852" width="10" height="10" patternUnits="userSpaceOnUse"><path id="gridCell2" d="M10 0V10H-10" fill="none" stroke="#FFFFFF" stroke-width="0.1852" stroke-opacity="0.6"/></pattern><marker id="arrowOnStart" orient="auto" refY="0" refX="0" style="overflow:visible" markerUnits="strokeWidth"><path d="M 2,0 l 4,-2, 0,4 z" stroke-width="6"/></marker><marker id="arrowOnEnd" orient="auto" refY="0" refX="0" style="overflow:visible" markerUnits="strokeWidth"><path d="M -2,0 l -4,-2, 0,4 z" stroke-width="6"/></marker><marker id="arrowOnStartChrome" orient="auto" refY="0" refX="0" style="overflow:visible" markerUnits="strokeWidth"><path d="M 2,0 l 4,-2, 0,4 z" stroke-width="3" stroke="#FFFFFF"/></marker><marker id="arrowOnEndChrome" orient="auto" refY="0" refX="0" style="overflow:visible" markerUnits="strokeWidth"><path d="M -2,0 l -4,-2, 0,4 z" stroke-width="3" stroke="#FFFFFF"/></marker><svg id="icon-lock" title="Unlock" viewBox="0 0 20 20" height="20" width="20"><path stroke="#F0F" stroke-width="2" style="cursor:pointer;fill-opacity:.001;fill:#fff" d="M 5 7 C 5 -1 15 -1 15 7L1 7 1 19 19 19 19 7 15 7"/></svg><mask id="multiLayerMask" maskUnits="userSpaceOnUse" x="3968.4" y="3370.8" width="91.1" height="78.7"><path d="M4020 3449.5,4020 3370.7598,4059.3701 3370.7598,4059.3701 3449.5z" stroke="none" fill="white"/><g fill="black"><circle cx="4053.4646" cy="3395.1299" r="1.75" stroke-width="0"/><circle cx="4053.4646" cy="3405.1299" r="1.75" stroke-width="0"/><circle cx="4053.4646" cy="3415.1299" r="1.75" stroke-width="0"/><circle cx="4053.4646" cy="3425.1299" r="1.75" stroke-width="0"/></g></mask><mask id="topBoardSolderMask" maskUnits="userSpaceOnUse" x="3968.4" y="3370.8" width="91.1" height="78.7"><path d="M4020 3449.5,4020 3370.7598,4059.3701 3370.7598,4059.3701 3449.5z" stroke="none" fill="white"/><g fill="black"><polygon points="4019.6 3395.57 4019.6 3393.19 4032.21 3393.19 4032.21 3395.57" stroke-width="0" c_etype="pad_outer"/><polygon points="4019.6 3399.51 4019.6 3397.13 4032.21 3397.13 4032.21 3399.51" stroke-width="0" c_etype="pad_outer"/><polygon points="4019.6 3403.44 4019.6 3401.07 4032.21 3401.07 4032.21 3403.44" stroke-width="0" c_etype="pad_outer"/><polygon points="4019.6 3407.38 4019.6 3405.01 4032.21 3405.01 4032.21 3407.38" stroke-width="0" c_etype="pad_outer"/><polygon points="4019.6 3411.32 4019.6 3408.94 4032.21 3408.94 4032.21 3411.32" stroke-width="0" c_etype="pad_outer"/><polygon points="4019.6 3415.25 4019.6 3412.88 4032.21 3412.88 4032.21 3415.25" stroke-width="0" c_etype="pad_outer"/><polygon points="4019.6 3419.19 4019.6 3416.82 4032.21 3416.82 4032.21 3419.19" stroke-width="0" c_etype="pad_outer"/><polygon points="4019.6 3423.13 4019.6 3420.75 4032.21 3420.75 4032.21 3423.13" stroke-width="0" c_etype="pad_outer"/><polygon points="4019.6 3427.07 4019.6 3424.69 4032.21 3424.69 4032.21 3427.07" stroke-width="0" c_etype="pad_outer"/><polygon points="4019.99 3385.92 4019.99 3381.19 4031.82 3381.19 4031.82 3385.92" stroke-width="0" c_etype="pad_outer"/><polygon points="4019.99 3439.07 4019.99 3434.34 4031.82 3434.34 4031.82 3439.07" stroke-width="0" c_etype="pad_outer"/><polygon points="4049.96 3398.63 4049.96 3391.63 4056.96 3391.63 4056.96 3398.63" stroke-width="0" c_etype="pad_outer"/><ellipse cx="4053.465" cy="3405.13" rx="3.5" ry="3.5" stroke-width="0" c_etype="pad_outer"/><ellipse cx="4053.465" cy="3415.13" rx="3.5" ry="3.5" stroke-width="0" c_etype="pad_outer"/><ellipse cx="4053.465" cy="3425.13" rx="3.5" ry="3.5" stroke-width="0" c_etype="pad_outer"/></g></mask><mask id="topSignalSolderMask" maskUnits="userSpaceOnUse" x="3968.4" y="3370.8" width="91.1" height="78.7"><path d="M4020 3449.5,4020 3370.7598,4059.3701 3370.7598,4059.3701 3449.5z" stroke="none" fill="white"/><g fill="black"><polygon points="4019.6 3395.57 4019.6 3393.19 4032.21 3393.19 4032.21 3395.57" stroke-width="0" c_etype="pad_outer"/><polygon points="4019.6 3399.51 4019.6 3397.13 4032.21 3397.13 4032.21 3399.51" stroke-width="0" c_etype="pad_outer"/><polygon points="4019.6 3403.44 4019.6 3401.07 4032.21 3401.07 4032.21 3403.44" stroke-width="0" c_etype="pad_outer"/><polygon points="4019.6 3407.38 4019.6 3405.01 4032.21 3405.01 4032.21 3407.38" stroke-width="0" c_etype="pad_outer"/><polygon points="4019.6 3411.32 4019.6 3408.94 4032.21 3408.94 4032.21 3411.32" stroke-width="0" c_etype="pad_outer"/><polygon points="4019.6 3415.25 4019.6 3412.88 4032.21 3412.88 4032.21 3415.25" stroke-width="0" c_etype="pad_outer"/><polygon points="4019.6 3419.19 4019.6 3416.82 4032.21 3416.82 4032.21 3419.19" stroke-width="0" c_etype="pad_outer"/><polygon points="4019.6 3423.13 4019.6 3420.75 4032.21 3420.75 4032.21 3423.13" stroke-width="0" c_etype="pad_outer"/><polygon points="4019.6 3427.07 4019.6 3424.69 4032.21 3424.69 4032.21 3427.07" stroke-width="0" c_etype="pad_outer"/><polygon points="4019.99 3385.92 4019.99 3381.19 4031.82 3381.19 4031.82 3385.92" stroke-width="0" c_etype="pad_outer"/><polygon points="4019.99 3439.07 4019.99 3434.34 4031.82 3434.34 4031.82 3439.07" stroke-width="0" c_etype="pad_outer"/><polygon points="4049.96 3398.63 4049.96 3391.63 4056.96 3391.63 4056.96 3398.63" stroke-width="0" c_etype="pad_outer"/><ellipse cx="4053.465" cy="3405.13" rx="3.5" ry="3.5" stroke-width="0" c_etype="pad_outer"/><ellipse cx="4053.465" cy="3415.13" rx="3.5" ry="3.5" stroke-width="0" c_etype="pad_outer"/><ellipse cx="4053.465" cy="3425.13" rx="3.5" ry="3.5" stroke-width="0" c_etype="pad_outer"/></g></mask><mask id="bottomBoardSolderMask" maskUnits="userSpaceOnUse" x="3968.4" y="3370.8" width="91.1" height="78.7"><path d="M4020 3449.5,4020 3370.7598,4059.3701 3370.7598,4059.3701 3449.5z" stroke="none" fill="white"/><g fill="black"><polygon points="4019.6 3393.6 4019.6 3391.23 4032.21 3391.23 4032.21 3393.6" stroke-width="0" c_etype="pad_outer"/><polygon points="4019.6 3397.54 4019.6 3395.16 4032.21 3395.16 4032.21 3397.54" stroke-width="0" c_etype="pad_outer"/><polygon points="4019.6 3401.47 4019.6 3399.1 4032.21 3399.1 4032.21 3401.47" stroke-width="0" c_etype="pad_outer"/><polygon points="4019.6 3405.41 4019.6 3403.04 4032.21 3403.04 4032.21 3405.41" stroke-width="0" c_etype="pad_outer"/><polygon points="4019.6 3409.35 4019.6 3406.97 4032.21 3406.97 4032.21 3409.35" stroke-width="0" c_etype="pad_outer"/><polygon points="4019.6 3413.29 4019.6 3410.91 4032.21 3410.91 4032.21 3413.29" stroke-width="0" c_etype="pad_outer"/><polygon points="4019.6 3417.22 4019.6 3414.85 4032.21 3414.85 4032.21 3417.22" stroke-width="0" c_etype="pad_outer"/><polygon points="4019.6 3421.16 4019.6 3418.79 4032.21 3418.79 4032.21 3421.16" stroke-width="0" c_etype="pad_outer"/><polygon points="4019.6 3425.1 4019.6 3422.72 4032.21 3422.72 4032.21 3425.1" stroke-width="0" c_etype="pad_outer"/><polygon points="4019.6 3429.03 4019.6 3426.66 4032.21 3426.66 4032.21 3429.03" stroke-width="0" c_etype="pad_outer"/><polygon points="4019.99 3385.92 4019.99 3381.19 4031.82 3381.19 4031.82 3385.92" stroke-width="0" c_etype="pad_outer"/><polygon points="4019.99 3439.07 4019.99 3434.34 4031.82 3434.34 4031.82 3439.07" stroke-width="0" c_etype="pad_outer"/><polygon points="4049.96 3398.63 4049.96 3391.63 4056.96 3391.63 4056.96 3398.63" stroke-width="0" c_etype="pad_outer"/><ellipse cx="4053.465" cy="3405.13" rx="3.5" ry="3.5" stroke-width="0" c_etype="pad_outer"/><ellipse cx="4053.465" cy="3415.13" rx="3.5" ry="3.5" stroke-width="0" c_etype="pad_outer"/><ellipse cx="4053.465" cy="3425.13" rx="3.5" ry="3.5" stroke-width="0" c_etype="pad_outer"/></g></mask><mask id="bottomSignalSolderMask" maskUnits="userSpaceOnUse" x="3968.4" y="3370.8" width="91.1" height="78.7"><path d="M4020 3449.5,4020 3370.7598,4059.3701 3370.7598,4059.3701 3449.5z" stroke="none" fill="white"/><g fill="black"><polygon points="4019.6 3393.6 4019.6 3391.23 4032.21 3391.23 4032.21 3393.6" stroke-width="0" c_etype="pad_outer"/><polygon points="4019.6 3397.54 4019.6 3395.16 4032.21 3395.16 4032.21 3397.54" stroke-width="0" c_etype="pad_outer"/><polygon points="4019.6 3401.47 4019.6 3399.1 4032.21 3399.1 4032.21 3401.47" stroke-width="0" c_etype="pad_outer"/><polygon points="4019.6 3405.41 4019.6 3403.04 4032.21 3403.04 4032.21 3405.41" stroke-width="0" c_etype="pad_outer"/><polygon points="4019.6 3409.35 4019.6 3406.97 4032.21 3406.97 4032.21 3409.35" stroke-width="0" c_etype="pad_outer"/><polygon points="4019.6 3413.29 4019.6 3410.91 4032.21 3410.91 4032.21 3413.29" stroke-width="0" c_etype="pad_outer"/><polygon points="4019.6 3417.22 4019.6 3414.85 4032.21 3414.85 4032.21 3417.22" stroke-width="0" c_etype="pad_outer"/><polygon points="4019.6 3421.16 4019.6 3418.79 4032.21 3418.79 4032.21 3421.16" stroke-width="0" c_etype="pad_outer"/><polygon points="4019.6 3425.1 4019.6 3422.72 4032.21 3422.72 4032.21 3425.1" stroke-width="0" c_etype="pad_outer"/><polygon points="4019.6 3429.03 4019.6 3426.66 4032.21 3426.66 4032.21 3429.03" stroke-width="0" c_etype="pad_outer"/><polygon points="4019.99 3385.92 4019.99 3381.19 4031.82 3381.19 4031.82 3385.92" stroke-width="0" c_etype="pad_outer"/><polygon points="4019.99 3439.07 4019.99 3434.34 4031.82 3434.34 4031.82 3439.07" stroke-width="0" c_etype="pad_outer"/><polygon points="4049.96 3398.63 4049.96 3391.63 4056.96 3391.63 4056.96 3398.63" stroke-width="0" c_etype="pad_outer"/><ellipse cx="4053.465" cy="3405.13" rx="3.5" ry="3.5" stroke-width="0" c_etype="pad_outer"/><ellipse cx="4053.465" cy="3415.13" rx="3.5" ry="3.5" stroke-width="0" c_etype="pad_outer"/><ellipse cx="4053.465" cy="3425.13" rx="3.5" ry="3.5" stroke-width="0" c_etype="pad_outer"/></g></mask></defs><g xmlns="http://www.w3.org/2000/svg" id="g1" mask="url(#multiLayerMask)" class="photoview" transform="matrix(-1, 0, 0, 1, 8079.3701171875, 0)"><g id="layer_other" class="shapeBox"><path d="M4020 3449.5,4020 3370.7598,4059.3701 3370.7598,4059.3701 3449.5z" stroke="none" id="boardOutlineReal" fill="#80785F"/><path d="M4020 3449.5,4020 3370.7598,4059.3701 3370.7598,4059.3701 3449.5z" stroke="none" id="topBoardSolderReal" mask="url(#topBoardSolderMask)" fill="#002966" display="none"/><g id="topSignalReal" fill="#DCAA14" stroke="#DCAA14" display="none"><polyline points="4025.91 3394.38 4032.96 3394.38" stroke-width="1.0236" c_shapetype="line" stroke-linecap="round" fill="none" layerid="1" net="" id="gge270_1" locked="0"/><polyline points="4025.91 3398.32 4046.65 3398.32 4053.47 3405.13" stroke-width="1.0236" c_shapetype="line" stroke-linecap="round" fill="none" layerid="1" net="" id="gge272_1" locked="0"/><polyline points="4025.91 3398.32 4046.65 3398.32 4053.47 3405.13" stroke-width="1.0236" c_shapetype="line" stroke-linecap="round" fill="none" layerid="1" net="" id="gge283_1" locked="0"/><polyline points="4032.96 3394.38 4036.47 3390.88 4057.42 3390.88 4058.12 3391.58 4058.12 3420.48 4053.47 3425.13" stroke-width="1.0236" c_shapetype="line" stroke-linecap="round" fill="none" layerid="1" net="" id="gge271_1" locked="0"/><polyline points="4025.91 3398.32 4046.65 3398.32 4053.47 3405.13" stroke-width="1.0236" c_shapetype="line" stroke-linecap="round" fill="none" layerid="1" net="" id="gge291_1" locked="0"/><g c_partid="part_pad" c_etype="pinpart" layerid="1" id="gge102_1" c_origin="4025.906,3394.382" net="" c_rotation="270" c_width="1.5748" c_height="11.811"><polygon points="4031.811 3393.5945 4031.811 3395.1693 4020 3395.1693 4020 3393.5945" stroke-width="0"/></g><g c_partid="part_pad" c_etype="pinpart" layerid="1" id="gge107_1" c_origin="4025.906,3398.319" net="" c_rotation="270" c_width="1.5748" c_height="11.811"><polygon points="4031.811 3397.5315 4031.811 3399.1063 4020 3399.1063 4020 3397.5315" stroke-width="0"/></g><g c_partid="part_pad" c_etype="pinpart" layerid="1" id="gge112_1" c_origin="4025.906,3402.256" net="" c_rotation="270" c_width="1.5748" c_height="11.811"><polygon points="4031.811 3401.4685 4031.811 3403.0433 4020 3403.0433 4020 3401.4685" stroke-width="0"/></g><g c_partid="part_pad" c_etype="pinpart" layerid="1" id="gge117_1" c_origin="4025.906,3406.193" net="" c_rotation="270" c_width="1.5748" c_height="11.811"><polygon points="4031.811 3405.4055 4031.811 3406.9803 4020 3406.9803 4020 3405.4055" stroke-width="0"/></g><g c_partid="part_pad" c_etype="pinpart" layerid="1" id="gge122_1" c_origin="4025.906,3410.13" net="" c_rotation="270" c_width="1.5748" c_height="11.811"><polygon points="4031.811 3409.3425 4031.811 3410.9173 4020 3410.9173 4020 3409.3425" stroke-width="0"/></g><g c_partid="part_pad" c_etype="pinpart" layerid="1" id="gge127_1" c_origin="4025.906,3414.067" net="" c_rotation="270" c_width="1.5748" c_height="11.811"><polygon points="4031.811 3413.2795 4031.811 3414.8543 4020 3414.8543 4020 3413.2795" stroke-width="0"/></g><g c_partid="part_pad" c_etype="pinpart" layerid="1" id="gge132_1" c_origin="4025.906,3418.004" net="" c_rotation="270" c_width="1.5748" c_height="11.811"><polygon points="4031.811 3417.2165 4031.811 3418.7913 4020 3418.7913 4020 3417.2165" stroke-width="0"/></g><g c_partid="part_pad" c_etype="pinpart" layerid="1" id="gge137_1" c_origin="4025.906,3421.941" net="" c_rotation="270" c_width="1.5748" c_height="11.811"><polygon points="4031.811 3421.1535 4031.811 3422.7283 4020 3422.7283 4020 3421.1535" stroke-width="0"/></g><g c_partid="part_pad" c_etype="pinpart" layerid="1" id="gge142_1" c_origin="4025.906,3425.878" net="" c_rotation="270" c_width="1.5748" c_height="11.811"><polygon points="4031.811 3425.0905 4031.811 3426.6653 4020 3426.6653 4020 3425.0905" stroke-width="0"/></g><g c_partid="part_pad" c_etype="pinpart" layerid="1" id="gge147_1" c_origin="4025.906,3383.555" net="" c_rotation="270" c_width="3.937" c_height="11.0236"><polygon points="4031.4173 3381.5866 4031.4173 3385.5236 4020.3937 3385.5236 4020.3937 3381.5866" stroke-width="0"/></g><g c_partid="part_pad" c_etype="pinpart" layerid="1" id="gge152_1" c_origin="4025.906,3436.705" net="" c_rotation="270" c_width="3.937" c_height="11.0236"><polygon points="4031.4173 3434.7362 4031.4173 3438.6732 4020.3937 3438.6732 4020.3937 3434.7362" stroke-width="0"/></g><g c_partid="part_pad" c_etype="pinpart" layerid="11" id="gge9_11" c_origin="4053.465,3395.13" net="" c_rotation="270" c_width="6.2" c_height="6.2"><polygon points="4056.5646 3392.0299 4056.5646 3398.2299 4050.3646 3398.2299 4050.3646 3392.0299" stroke-width="0" c_etype="pad_shell"/></g><g c_partid="part_pad" c_etype="pinpart" layerid="11" id="gge14_11" c_origin="4053.465,3405.13" net="" c_rotation="270" c_width="6.2" c_height="6.2"><ellipse cx="4053.465" cy="3405.13" rx="3.1" ry="3.1" stroke-width="0" c_etype="pad_shell"/></g><g c_partid="part_pad" c_etype="pinpart" layerid="11" id="gge19_11" c_origin="4053.465,3415.13" net="" c_rotation="270" c_width="6.2" c_height="6.2"><ellipse cx="4053.465" cy="3415.13" rx="3.1" ry="3.1" stroke-width="0" c_etype="pad_shell"/></g><g c_partid="part_pad" c_etype="pinpart" layerid="11" id="gge24_11" c_origin="4053.465,3425.13" net="" c_rotation="270" c_width="6.2" c_height="6.2"><ellipse cx="4053.465" cy="3425.13" rx="3.1" ry="3.1" stroke-width="0" c_etype="pad_shell"/></g></g><g id="topSignalSolderReal" mask="url(#topSignalSolderMask)" fill="#005CB6" stroke="#005CB6" display="none"><polyline points="4025.91 3394.38 4032.96 3394.38" stroke-width="1.0236" c_shapetype="line" stroke-linecap="round" fill="none" layerid="1" net="" id="gge270_1" locked="0"/><polyline points="4025.91 3398.32 4046.65 3398.32 4053.47 3405.13" stroke-width="1.0236" c_shapetype="line" stroke-linecap="round" fill="none" layerid="1" net="" id="gge272_1" locked="0"/><polyline points="4025.91 3398.32 4046.65 3398.32 4053.47 3405.13" stroke-width="1.0236" c_shapetype="line" stroke-linecap="round" fill="none" layerid="1" net="" id="gge283_1" locked="0"/><polyline points="4032.96 3394.38 4036.47 3390.88 4057.42 3390.88 4058.12 3391.58 4058.12 3420.48 4053.47 3425.13" stroke-width="1.0236" c_shapetype="line" stroke-linecap="round" fill="none" layerid="1" net="" id="gge271_1" locked="0"/><polyline points="4025.91 3398.32 4046.65 3398.32 4053.47 3405.13" stroke-width="1.0236" c_shapetype="line" stroke-linecap="round" fill="none" layerid="1" net="" id="gge291_1" locked="0"/><g c_partid="part_pad" c_etype="pinpart" layerid="1" id="gge102_1" c_origin="4025.906,3394.382" net="" c_rotation="270" c_width="1.5748" c_height="11.811"><polygon points="4031.811 3393.5945 4031.811 3395.1693 4020 3395.1693 4020 3393.5945" stroke-width="0"/></g><g c_partid="part_pad" c_etype="pinpart" layerid="1" id="gge107_1" c_origin="4025.906,3398.319" net="" c_rotation="270" c_width="1.5748" c_height="11.811"><polygon points="4031.811 3397.5315 4031.811 3399.1063 4020 3399.1063 4020 3397.5315" stroke-width="0"/></g><g c_partid="part_pad" c_etype="pinpart" layerid="1" id="gge112_1" c_origin="4025.906,3402.256" net="" c_rotation="270" c_width="1.5748" c_height="11.811"><polygon points="4031.811 3401.4685 4031.811 3403.0433 4020 3403.0433 4020 3401.4685" stroke-width="0"/></g><g c_partid="part_pad" c_etype="pinpart" layerid="1" id="gge117_1" c_origin="4025.906,3406.193" net="" c_rotation="270" c_width="1.5748" c_height="11.811"><polygon points="4031.811 3405.4055 4031.811 3406.9803 4020 3406.9803 4020 3405.4055" stroke-width="0"/></g><g c_partid="part_pad" c_etype="pinpart" layerid="1" id="gge122_1" c_origin="4025.906,3410.13" net="" c_rotation="270" c_width="1.5748" c_height="11.811"><polygon points="4031.811 3409.3425 4031.811 3410.9173 4020 3410.9173 4020 3409.3425" stroke-width="0"/></g><g c_partid="part_pad" c_etype="pinpart" layerid="1" id="gge127_1" c_origin="4025.906,3414.067" net="" c_rotation="270" c_width="1.5748" c_height="11.811"><polygon points="4031.811 3413.2795 4031.811 3414.8543 4020 3414.8543 4020 3413.2795" stroke-width="0"/></g><g c_partid="part_pad" c_etype="pinpart" layerid="1" id="gge132_1" c_origin="4025.906,3418.004" net="" c_rotation="270" c_width="1.5748" c_height="11.811"><polygon points="4031.811 3417.2165 4031.811 3418.7913 4020 3418.7913 4020 3417.2165" stroke-width="0"/></g><g c_partid="part_pad" c_etype="pinpart" layerid="1" id="gge137_1" c_origin="4025.906,3421.941" net="" c_rotation="270" c_width="1.5748" c_height="11.811"><polygon points="4031.811 3421.1535 4031.811 3422.7283 4020 3422.7283 4020 3421.1535" stroke-width="0"/></g><g c_partid="part_pad" c_etype="pinpart" layerid="1" id="gge142_1" c_origin="4025.906,3425.878" net="" c_rotation="270" c_width="1.5748" c_height="11.811"><polygon points="4031.811 3425.0905 4031.811 3426.6653 4020 3426.6653 4020 3425.0905" stroke-width="0"/></g><g c_partid="part_pad" c_etype="pinpart" layerid="1" id="gge147_1" c_origin="4025.906,3383.555" net="" c_rotation="270" c_width="3.937" c_height="11.0236"><polygon points="4031.4173 3381.5866 4031.4173 3385.5236 4020.3937 3385.5236 4020.3937 3381.5866" stroke-width="0"/></g><g c_partid="part_pad" c_etype="pinpart" layerid="1" id="gge152_1" c_origin="4025.906,3436.705" net="" c_rotation="270" c_width="3.937" c_height="11.0236"><polygon points="4031.4173 3434.7362 4031.4173 3438.6732 4020.3937 3438.6732 4020.3937 3434.7362" stroke-width="0"/></g><g c_partid="part_pad" c_etype="pinpart" layerid="11" id="gge9_11" c_origin="4053.465,3395.13" net="" c_rotation="270" c_width="6.2" c_height="6.2"><polygon points="4056.5646 3392.0299 4056.5646 3398.2299 4050.3646 3398.2299 4050.3646 3392.0299" stroke-width="0" c_etype="pad_shell"/></g><g c_partid="part_pad" c_etype="pinpart" layerid="11" id="gge14_11" c_origin="4053.465,3405.13" net="" c_rotation="270" c_width="6.2" c_height="6.2"><ellipse cx="4053.465" cy="3405.13" rx="3.1" ry="3.1" stroke-width="0" c_etype="pad_shell"/></g><g c_partid="part_pad" c_etype="pinpart" layerid="11" id="gge19_11" c_origin="4053.465,3415.13" net="" c_rotation="270" c_width="6.2" c_height="6.2"><ellipse cx="4053.465" cy="3415.13" rx="3.1" ry="3.1" stroke-width="0" c_etype="pad_shell"/></g><g c_partid="part_pad" c_etype="pinpart" layerid="11" id="gge24_11" c_origin="4053.465,3425.13" net="" c_rotation="270" c_width="6.2" c_height="6.2"><ellipse cx="4053.465" cy="3425.13" rx="3.1" ry="3.1" stroke-width="0" c_etype="pad_shell"/></g></g><g id="topSilkLayer" fill="#FFFFFF" stroke="#FFFFFF" display="none"><g c_partid="part_pcbtext" c_etype="pinpart" c_origin="4036,3427.5" c_rotation="0" c_mirror="0" id="gge266_3" locked="0" layerid="3" c_shapetype="group"><path c_fontsize="3.937" c_fontfamily="" c_text="VCC" d="M 4036 3423.53 L 4037.43 3427.29 M 4038.86 3423.53 L 4037.43 3427.29 M 4042.73 3424.42 L 4042.55 3424.06 L 4042.19 3423.71 L 4041.83 3423.53 L 4041.12 3423.53 L 4040.76 3423.71 L 4040.4 3424.06 L 4040.22 3424.42 L 4040.04 3424.96 L 4040.04 3425.85 L 4040.22 3426.39 L 4040.4 3426.75 L 4040.76 3427.11 L 4041.12 3427.29 L 4041.83 3427.29 L 4042.19 3427.11 L 4042.55 3426.75 L 4042.73 3426.39 M 4046.59 3424.42 L 4046.42 3424.06 L 4046.06 3423.71 L 4045.7 3423.53 L 4044.98 3423.53 L 4044.63 3423.71 L 4044.27 3424.06 L 4044.09 3424.42 L 4043.91 3424.96 L 4043.91 3425.85 L 4044.09 3426.39 L 4044.27 3426.75 L 4044.63 3427.11 L 4044.98 3427.29 L 4045.7 3427.29 L 4046.06 3427.11 L 4046.42 3426.75 L 4046.59 3426.39" fill="none" stroke-width="0.5906"/></g><g c_partid="part_pcbtext" c_etype="pinpart" c_origin="4036.5,3417.5" c_rotation="0" c_mirror="0" id="gge265_3" locked="0" layerid="3" c_shapetype="group"><path c_fontsize="3.937" c_fontfamily="" c_text="SCL" d="M 4039.01 3414.06 L 4038.65 3413.71 L 4038.11 3413.53 L 4037.39 3413.53 L 4036.86 3413.71 L 4036.5 3414.06 L 4036.5 3414.42 L 4036.68 3414.78 L 4036.86 3414.96 L 4037.22 3415.14 L 4038.29 3415.5 L 4038.65 3415.67 L 4038.83 3415.85 L 4039.01 3416.21 L 4039.01 3416.75 L 4038.65 3417.11 L 4038.11 3417.29 L 4037.39 3417.29 L 4036.86 3417.11 L 4036.5 3416.75 M 4042.87 3414.42 L 4042.69 3414.06 L 4042.33 3413.71 L 4041.98 3413.53 L 4041.26 3413.53 L 4040.9 3413.71 L 4040.54 3414.06 L 4040.37 3414.42 L 4040.19 3414.96 L 4040.19 3415.85 L 4040.37 3416.39 L 4040.54 3416.75 L 4040.9 3417.11 L 4041.26 3417.29 L 4041.98 3417.29 L 4042.33 3417.11 L 4042.69 3416.75 L 4042.87 3416.39 M 4044.05 3413.53 L 4044.05 3417.29 M 4044.05 3417.29 L 4046.2 3417.29" fill="none" stroke-width="0.5906"/></g><g c_partid="part_pcbtext" c_etype="pinpart" c_origin="4036,3407.5" c_rotation="0" c_mirror="0" id="gge264_3" locked="0" layerid="3" c_shapetype="group"><path c_fontsize="3.937" c_fontfamily="" c_text="SDA" d="M 4038.51 3404.06 L 4038.15 3403.71 L 4037.61 3403.53 L 4036.89 3403.53 L 4036.36 3403.71 L 4036 3404.06 L 4036 3404.42 L 4036.18 3404.78 L 4036.36 3404.96 L 4036.72 3405.14 L 4037.79 3405.5 L 4038.15 3405.67 L 4038.33 3405.85 L 4038.51 3406.21 L 4038.51 3406.75 L 4038.15 3407.11 L 4037.61 3407.29 L 4036.89 3407.29 L 4036.36 3407.11 L 4036 3406.75 M 4039.69 3403.53 L 4039.69 3407.29 M 4039.69 3403.53 L 4040.94 3403.53 L 4041.48 3403.71 L 4041.83 3404.06 L 4042.01 3404.42 L 4042.19 3404.96 L 4042.19 3405.85 L 4042.01 3406.39 L 4041.83 3406.75 L 4041.48 3407.11 L 4040.94 3407.29 L 4039.69 3407.29 M 4044.8 3403.53 L 4043.37 3407.29 M 4044.8 3403.53 L 4046.24 3407.29 M 4043.91 3406.03 L 4045.7 3406.03" fill="none" stroke-width="0.5906"/></g><g c_partid="part_pcbtext" c_etype="pinpart" c_origin="4036,3397" c_rotation="0" c_mirror="0" id="gge263_3" locked="0" layerid="3" c_shapetype="group"><path c_fontsize="3.937" c_fontfamily="" c_text="GND" d="M 4038.68 3393.92 L 4038.51 3393.56 L 4038.15 3393.21 L 4037.79 3393.03 L 4037.07 3393.03 L 4036.72 3393.21 L 4036.36 3393.56 L 4036.18 3393.92 L 4036 3394.46 L 4036 3395.35 L 4036.18 3395.89 L 4036.36 3396.25 L 4036.72 3396.61 L 4037.07 3396.79 L 4037.79 3396.79 L 4038.15 3396.61 L 4038.51 3396.25 L 4038.68 3395.89 L 4038.68 3395.35 M 4037.79 3395.35 L 4038.68 3395.35 M 4039.87 3393.03 L 4039.87 3396.79 M 4039.87 3393.03 L 4042.37 3396.79 M 4042.37 3393.03 L 4042.37 3396.79 M 4043.55 3393.03 L 4043.55 3396.79 M 4043.55 3393.03 L 4044.8 3393.03 L 4045.34 3393.21 L 4045.7 3393.56 L 4045.88 3393.92 L 4046.06 3394.46 L 4046.06 3395.35 L 4045.88 3395.89 L 4045.7 3396.25 L 4045.34 3396.61 L 4044.8 3396.79 L 4043.55 3396.79" fill="none" stroke-width="0.5906"/></g><g c_partid="part_pcbtext" c_etype="" c_origin="4069.815,3493.91" c_rotation="90" c_mirror="0" id="gge3_3" locked="0" layerid="3" c_shapetype="group" display="none"><path c_fontsize="4.5" c_fontfamily="" c_text="Header-Female-2.54_1x4" d="M 4065.2747 3493.9099 L 4069.5647 3493.9099 M 4065.2747 3491.0499 L 4069.5647 3491.0499 M 4067.3147 3493.9099 L 4067.3147 3491.0499 M 4067.9347 3489.6999 L 4067.9347 3487.2399 L 4067.5247 3487.2399 L 4067.1147 3487.4499 L 4066.9147 3487.6499 L 4066.7047 3488.0599 L 4066.7047 3488.6699 L 4066.9147 3489.0799 L 4067.3147 3489.4899 L 4067.9347 3489.6999 L 4068.3447 3489.6999 L 4068.9547 3489.4899 L 4069.3647 3489.0799 L 4069.5647 3488.6699 L 4069.5647 3488.0599 L 4069.3647 3487.6499 L 4068.9547 3487.2399 M 4066.7047 3483.4399 L 4069.5647 3483.4399 M 4067.3147 3483.4399 L 4066.9147 3483.8499 L 4066.7047 3484.2599 L 4066.7047 3484.8699 L 4066.9147 3485.2799 L 4067.3147 3485.6899 L 4067.9347 3485.8899 L 4068.3447 3485.8899 L 4068.9547 3485.6899 L 4069.3647 3485.2799 L 4069.5647 3484.8699 L 4069.5647 3484.2599 L 4069.3647 3483.8499 L 4068.9547 3483.4399 M 4065.2747 3479.6299 L 4069.5647 3479.6299 M 4067.3147 3479.6299 L 4066.9147 3480.0399 L 4066.7047 3480.4499 L 4066.7047 3481.0599 L 4066.9147 3481.4699 L 4067.3147 3481.8799 L 4067.9347 3482.0899 L 4068.3447 3482.0899 L 4068.9547 3481.8799 L 4069.3647 3481.4699 L 4069.5647 3481.0599 L 4069.5647 3480.4499 L 4069.3647 3480.0399 L 4068.9547 3479.6299 M 4067.9347 3478.2799 L 4067.9347 3475.8299 L 4067.5247 3475.8299 L 4067.1147 3476.0299 L 4066.9147 3476.2399 L 4066.7047 3476.6499 L 4066.7047 3477.2599 L 4066.9147 3477.6699 L 4067.3147 3478.0799 L 4067.9347 3478.2799 L 4068.3447 3478.2799 L 4068.9547 3478.0799 L 4069.3647 3477.6699 L 4069.5647 3477.2599 L 4069.5647 3476.6499 L 4069.3647 3476.2399 L 4068.9547 3475.8299 M 4066.7047 3474.4799 L 4069.5647 3474.4799 M 4067.9347 3474.4799 L 4067.3147 3474.2699 L 4066.9147 3473.8599 L 4066.7047 3473.4599 L 4066.7047 3472.8399 M 4067.7247 3471.4899 L 4067.7247 3467.8099 M 4065.2747 3466.4599 L 4069.5647 3466.4599 M 4065.2747 3466.4599 L 4065.2747 3463.7999 M 4067.3147 3466.4599 L 4067.3147 3464.8199 M 4067.9347 3462.4499 L 4067.9347 3459.9999 L 4067.5247 3459.9999 L 4067.1147 3460.1999 L 4066.9147 3460.4099 L 4066.7047 3460.8099 L 4066.7047 3461.4299 L 4066.9147 3461.8399 L 4067.3147 3462.2499 L 4067.9347 3462.4499 L 4068.3447 3462.4499 L 4068.9547 3462.2499 L 4069.3647 3461.8399 L 4069.5647 3461.4299 L 4069.5647 3460.8099 L 4069.3647 3460.4099 L 4068.9547 3459.9999 M 4066.7047 3458.6499 L 4069.5647 3458.6499 M 4067.5247 3458.6499 L 4066.9147 3458.0299 L 4066.7047 3457.6199 L 4066.7047 3457.0099 L 4066.9147 3456.5999 L 4067.5247 3456.3999 L 4069.5647 3456.3999 M 4067.5247 3456.3999 L 4066.9147 3455.7799 L 4066.7047 3455.3699 L 4066.7047 3454.7599 L 4066.9147 3454.3499 L 4067.5247 3454.1499 L 4069.5647 3454.1499 M 4066.7047 3450.3399 L 4069.5647 3450.3399 M 4067.3147 3450.3399 L 4066.9147 3450.7499 L 4066.7047 3451.1599 L 4066.7047 3451.7699 L 4066.9147 3452.1799 L 4067.3147 3452.5899 L 4067.9347 3452.7999 L 4068.3447 3452.7999 L 4068.9547 3452.5899 L 4069.3647 3452.1799 L 4069.5647 3451.7699 L 4069.5647 3451.1599 L 4069.3647 3450.7499 L 4068.9547 3450.3399 M 4065.2747 3448.9899 L 4069.5647 3448.9899 M 4067.9347 3447.6399 L 4067.9347 3445.1899 L 4067.5247 3445.1899 L 4067.1147 3445.3899 L 4066.9147 3445.5999 L 4066.7047 3446.0099 L 4066.7047 3446.6199 L 4066.9147 3447.0299 L 4067.3147 3447.4399 L 4067.9347 3447.6399 L 4068.3447 3447.6399 L 4068.9547 3447.4399 L 4069.3647 3447.0299 L 4069.5647 3446.6199 L 4069.5647 3446.0099 L 4069.3647 3445.5999 L 4068.9547 3445.1899 M 4067.7247 3443.8399 L 4067.7247 3440.1599 M 4066.2947 3438.5999 L 4066.0947 3438.5999 L 4065.6847 3438.3999 L 4065.4747 3438.1899 L 4065.2747 3437.7799 L 4065.2747 3436.9599 L 4065.4747 3436.5599 L 4065.6847 3436.3499 L 4066.0947 3436.1499 L 4066.5047 3436.1499 L 4066.9147 3436.3499 L 4067.5247 3436.7599 L 4069.5647 3438.8099 L 4069.5647 3435.9399 M 4068.5447 3434.3899 L 4068.7547 3434.5899 L 4068.9547 3434.3899 L 4068.7547 3434.1799 L 4068.5447 3434.3899 M 4065.2747 3430.3799 L 4065.2747 3432.4199 L 4067.1147 3432.6299 L 4066.9147 3432.4199 L 4066.7047 3431.8099 L 4066.7047 3431.1999 L 4066.9147 3430.5799 L 4067.3147 3430.1699 L 4067.9347 3429.9699 L 4068.3447 3429.9699 L 4068.9547 3430.1699 L 4069.3647 3430.5799 L 4069.5647 3431.1999 L 4069.5647 3431.8099 L 4069.3647 3432.4199 L 4069.1647 3432.6299 L 4068.7547 3432.8299 M 4065.2747 3426.5699 L 4068.1347 3428.6199 L 4068.1347 3425.5499 M 4065.2747 3426.5699 L 4069.5647 3426.5699 M 4071.0047 3424.1999 L 4071.0047 3420.5199 M 4066.0947 3419.1699 L 4065.8847 3418.7599 L 4065.2747 3418.1499 L 4069.5647 3418.1499 M 4066.7047 3416.7999 L 4069.5647 3414.5499 M 4066.7047 3414.5499 L 4069.5647 3416.7999 M 4065.2747 3411.1499 L 4068.1347 3413.1999 L 4068.1347 3410.1299 M 4065.2747 3411.1499 L 4069.5647 3411.1499" fill="none" stroke-width="0.6" c_note="note_name" style=""/></g><g c_partid="part_pcbtext" c_etype="" c_origin="4049.965,3437.13" c_rotation="0" c_mirror="0" id="gge5_3" locked="0" layerid="3" c_shapetype="group"><path c_fontsize="4.5" c_fontfamily="" c_text="J2" d="M 4052.0146 3432.5899 L 4052.0146 3435.8599 L 4051.8046 3436.4799 L 4051.6046 3436.6799 L 4051.1946 3436.8799 L 4050.7846 3436.8799 L 4050.3746 3436.6799 L 4050.1646 3436.4799 L 4049.9646 3435.8599 L 4049.9646 3435.4499 M 4053.5646 3433.6099 L 4053.5646 3433.4099 L 4053.7646 3432.9999 L 4053.9746 3432.7899 L 4054.3846 3432.5899 L 4055.2046 3432.5899 L 4055.6146 3432.7899 L 4055.8146 3432.9999 L 4056.0146 3433.4099 L 4056.0146 3433.8199 L 4055.8146 3434.2299 L 4055.4046 3434.8399 L 4053.3646 3436.8799 L 4056.2246 3436.8799" fill="none" stroke-width="0.6" c_note="note_pre" style=""/></g><g c_partid="part_pcbtext" c_etype="" c_origin="4044.652,3440.834" c_rotation="90" c_mirror="0" id="gge31_3" locked="0" layerid="3" c_shapetype="group" display="none"><path c_fontsize="4.5" c_fontfamily="" c_text="HDMI 19PM" d="M 4040.1118 3440.8338 L 4044.4018 3440.8338 M 4040.1118 3437.9738 L 4044.4018 3437.9738 M 4042.1518 3440.8338 L 4042.1518 3437.9738 M 4040.1118 3436.6238 L 4044.4018 3436.6238 M 4040.1118 3436.6238 L 4040.1118 3435.1838 L 4040.3118 3434.5738 L 4040.7218 3434.1638 L 4041.1318 3433.9638 L 4041.7518 3433.7538 L 4042.7718 3433.7538 L 4043.3818 3433.9638 L 4043.7918 3434.1638 L 4044.2018 3434.5738 L 4044.4018 3435.1838 L 4044.4018 3436.6238 M 4040.1118 3432.4038 L 4044.4018 3432.4038 M 4040.1118 3432.4038 L 4044.4018 3430.7738 M 4040.1118 3429.1338 L 4044.4018 3430.7738 M 4040.1118 3429.1338 L 4044.4018 3429.1338 M 4040.1118 3427.7838 L 4044.4018 3427.7838 M 4040.9318 3423.2838 L 4040.7218 3422.8738 L 4040.1118 3422.2638 L 4044.4018 3422.2638 M 4041.5418 3418.2538 L 4042.1518 3418.4538 L 4042.5618 3418.8638 L 4042.7718 3419.4838 L 4042.7718 3419.6838 L 4042.5618 3420.2938 L 4042.1518 3420.7038 L 4041.5418 3420.9138 L 4041.3418 3420.9138 L 4040.7218 3420.7038 L 4040.3118 3420.2938 L 4040.1118 3419.6838 L 4040.1118 3419.4838 L 4040.3118 3418.8638 L 4040.7218 3418.4538 L 4041.5418 3418.2538 L 4042.5618 3418.2538 L 4043.5918 3418.4538 L 4044.2018 3418.8638 L 4044.4018 3419.4838 L 4044.4018 3419.8838 L 4044.2018 3420.5038 L 4043.7918 3420.7038 M 4040.1118 3416.9038 L 4044.4018 3416.9038 M 4040.1118 3416.9038 L 4040.1118 3415.0638 L 4040.3118 3414.4438 L 4040.5218 3414.2438 L 4040.9318 3414.0338 L 4041.5418 3414.0338 L 4041.9518 3414.2438 L 4042.1518 3414.4438 L 4042.3618 3415.0638 L 4042.3618 3416.9038 M 4040.1118 3412.6838 L 4044.4018 3412.6838 M 4040.1118 3412.6838 L 4044.4018 3411.0538 M 4040.1118 3409.4138 L 4044.4018 3411.0538 M 4040.1118 3409.4138 L 4044.4018 3409.4138" fill="none" stroke-width="0.6" c_note="note_name" style=""/></g><g c_partid="part_pcbtext" c_etype="" c_origin="4023.406,3445.5" c_rotation="0" c_mirror="0" id="gge33_3" locked="0" layerid="3" c_shapetype="group"><path c_fontsize="4.5" c_fontfamily="" c_text="J1" d="M 4025.4555 3440.96 L 4025.4555 3444.23 L 4025.2455 3444.85 L 4025.0455 3445.05 L 4024.6355 3445.25 L 4024.2255 3445.25 L 4023.8155 3445.05 L 4023.6055 3444.85 L 4023.4055 3444.23 L 4023.4055 3443.82 M 4026.8055 3441.78 L 4027.2055 3441.57 L 4027.8255 3440.96 L 4027.8255 3445.25" fill="none" stroke-width="0.6" c_note="note_pre" style=""/></g><polyline points="4058.4646 3430.1299 4048.4646 3430.1299 4048.4646 3390.1299 4058.4646 3390.1299 4058.4646 3397.6299" stroke-width="0.8" c_shapetype="line" stroke-linecap="round" fill="none" layerid="3" net="" id="gge7_3" locked="0"/><polyline points="4058.4646 3430.1299 4058.4646 3397.6299" stroke-width="0.79921" c_shapetype="line" stroke-linecap="round" fill="none" layerid="3" net="" id="gge8_3" locked="0"/><polyline points="4005.4055 3382.6299 4005.4055 3437.6299" stroke-width="1" c_shapetype="line" stroke-linecap="round" fill="none" layerid="3" net="" id="gge35_3" locked="0"/><polyline points="4018.4055 3410.1299 3968.4055 3410.1299" stroke-width="1" c_shapetype="line" stroke-linecap="round" fill="none" layerid="3" net="" id="gge36_3" locked="0"/><polyline points="4018.905 3382.5709 4018.905 3437.6889 3968.511 3437.6889 3968.511 3382.5709 4018.905 3382.5709" stroke-width="1" c_shapetype="line" stroke-linecap="round" fill="none" layerid="3" net="" id="gge37_3" locked="0"/><polyline points="4014.155 3391.1299 4014.155 3399.1299 4010.655 3399.1299 4010.655 3391.1299 4014.155 3391.1299" stroke-width="1" c_shapetype="line" stroke-linecap="round" fill="none" layerid="3" net="" id="gge38_3" locked="0"/><polyline points="4014.155 3421.1299 4014.155 3429.1299 4010.655 3429.1299 4010.655 3421.1299 4014.155 3421.1299" stroke-width="1" c_shapetype="line" stroke-linecap="round" fill="none" layerid="3" net="" id="gge39_3" locked="0"/><polyline points="3989.156 3397.1299 3989.156 3403.1299 3982.656 3403.1299 3982.656 3397.1299 3989.156 3397.1299" stroke-width="1" c_shapetype="line" stroke-linecap="round" fill="none" layerid="3" net="" id="gge40_3" locked="0"/><polyline points="3989.156 3417.1299 3989.156 3423.1299 3982.656 3423.1299 3982.656 3417.1299 3989.156 3417.1299" stroke-width="1" c_shapetype="line" stroke-linecap="round" fill="none" layerid="3" net="" id="gge41_3" locked="0"/></g><path d="M4020 3449.5,4020 3370.7598,4059.3701 3370.7598,4059.3701 3449.5z" stroke="none" id="bottomBoardSolderReal" mask="url(#bottomBoardSolderMask)" fill="#002966"/><g id="bottomSignalReal" fill="#DCAA14" stroke="#DCAA14"><path d="M 4058.05001 3414.99085 L 4057.87574 3414.99656 4057.71559 3414.92758 4057.60001 3414.79702 4057.5485 3414.59224 4057.44339 3414.06379 4057.27019 3413.55357 4057.03188 3413.07033 4056.73253 3412.62233 4056.37727 3412.21723 4055.97217 3411.86197 4055.52417 3411.56262 4055.04093 3411.32431 4054.53071 3411.15111 4054.00226 3411.046 4053.4646 3411.01076 4052.92694 3411.046 4052.39849 3411.15111 4052.0793 3411.25946 4051.93332 3411.28031 4051.78971 3411.24685 4051.66798 3411.16363 4039.71666 3399.22036 4039.46998 3399.01798 4039.20545 3398.87659 4038.91846 3398.78953 4038.60035 3398.7582 4032.64591 3398.7582 4032.53517 3398.74257 4032.37071 3398.65769 4032.25472 3398.54679 4032.19165 3398.39924 4032.19165 3398.23876 4032.25472 3398.09121 4032.37071 3397.98031 4032.44538 3397.93339 4032.60649 3397.77228 4032.72771 3397.57936 4032.80296 3397.36431 4032.831 3397.11544 4032.831 3396.9942 4029.10825 3396.9942 4029.10825 3398.0801 4029.0778 3398.23317 4028.99109 3398.36294 4028.86132 3398.44965 4028.70825 3398.4801 4023.10275 3398.4801 4022.94968 3398.44965 4022.81991 3398.36294 4022.7332 3398.23317 4022.70275 3398.0801 4022.70275 3396.9942 4021.42 3396.9942 4021.26693 3396.96375 4021.13716 3396.87704 4021.05045 3396.74727 4021.02 3396.5942 4021.02 3396.1068 4021.05045 3395.95373 4021.13716 3395.82396 4021.26693 3395.73725 4021.42 3395.7068 4022.70275 3395.7068 4022.70275 3394.6209 4022.7332 3394.46783 4022.81991 3394.33806 4022.94968 3394.25135 4023.10275 3394.2209 4028.70825 3394.2209 4028.86132 3394.25135 4028.99109 3394.33806 4029.0778 3394.46783 4029.10825 3394.6209 4029.10825 3395.7068 4032.831 3395.7068 4032.831 3395.58556 4032.80296 3395.33669 4032.72771 3395.12164 4032.60649 3394.92872 4032.44538 3394.76761 4032.37071 3394.72069 4032.25472 3394.60979 4032.19165 3394.46224 4032.19165 3394.30176 4032.25472 3394.15421 4032.37071 3394.04331 4032.44538 3393.99639 4032.60649 3393.83528 4032.72771 3393.64236 4032.80296 3393.42731 4032.831 3393.17844 4032.831 3391.64856 4032.80296 3391.39969 4032.72771 3391.18464 4032.60649 3390.99172 4032.44538 3390.83061 4032.25246 3390.70939 4032.03741 3390.63414 4031.78854 3390.6061 4021.42 3390.6061 4021.26693 3390.57565 4021.13716 3390.48894 4021.05045 3390.35917 4021.02 3390.2061 4021.02 3386.9435 4021.05045 3386.79043 4021.13716 3386.66066 4021.26693 3386.57395 4021.42 3386.5435 4031.39434 3386.5435 4031.64321 3386.51546 4031.85826 3386.44021 4032.05118 3386.31899 4032.21229 3386.15788 4032.33351 3385.96496 4032.40876 3385.74991 4032.4368 3385.50104 4032.4368 3381.60896 4032.40876 3381.36009 4032.33351 3381.14504 4032.21229 3380.95212 4032.05118 3380.79101 4031.85826 3380.66979 4031.64321 3380.59454 4031.39434 3380.5665 4021.42 3380.5665 4021.26693 3380.53605 4021.13716 3380.44934 4021.05045 3380.31957 4021.02 3380.1665 4021.02 3372.1798 4021.05045 3372.02673 4021.13716 3371.89696 4021.26693 3371.81025 4021.42 3371.7798 4057.9501 3371.7798 4058.10317 3371.81025 4058.23294 3371.89696 4058.31965 3372.02673 4058.3501 3372.1798 4058.3501 3391.7237 4058.31826 3391.88009 4058.22782 3392.01157 4058.09317 3392.09724 4057.93575 3392.12345 4057.78061 3392.08602 4057.65245 3391.99092 4057.57167 3391.85329 4057.48059 3391.58729 4057.36009 3391.39552 4057.19898 3391.23441 4057.00606 3391.11319 4056.79101 3391.03794 4056.54214 3391.0099 4055.2646 3391.0099 4055.2646 3393.3299 4057.9501 3393.3299 4058.10317 3393.36035 4058.23294 3393.44706 4058.31965 3393.57683 4058.3501 3393.7299 4058.3501 3396.5299 4058.31965 3396.68297 4058.23294 3396.81274 4058.10317 3396.89945 4057.9501 3396.9299 4055.2646 3396.9299 4055.2646 3399.2499 4056.54214 3399.2499 4056.79101 3399.22186 4057.00606 3399.14661 4057.19898 3399.02539 4057.36009 3398.86428 4057.48059 3398.67251 4057.57167 3398.40651 4057.65245 3398.26888 4057.78061 3398.17378 4057.93575 3398.13635 4058.09317 3398.16256 4058.22782 3398.24823 4058.31826 3398.37971 4058.3501 3398.5361 4058.3501 3404.60353 4058.31209 3404.77371 4058.2053 3404.91155 4058.05001 3404.99085 4057.87574 3404.99656 4057.71559 3404.92758 4057.60001 3404.79702 4057.5485 3404.59224 4057.44339 3404.06379 4057.27019 3403.55357 4057.03188 3403.07033 4056.73253 3402.62233 4056.37727 3402.21723 4055.97217 3401.86197 4055.52417 3401.56262 4055.04093 3401.32431 4054.53071 3401.15111 4054.00226 3401.046 4053.4646 3401.01076 4052.92694 3401.046 4052.39849 3401.15111 4051.88827 3401.32431 4051.40503 3401.56262 4050.95703 3401.86197 4050.55193 3402.21723 4050.19667 3402.62233 4049.89732 3403.07033 4049.65901 3403.55357 4049.48581 3404.06379 4049.3807 3404.59224 4049.34546 3405.1299 4049.3807 3405.66756 4049.48581 3406.19601 4049.65901 3406.70623 4049.89732 3407.18947 4050.19667 3407.63747 4050.55193 3408.04257 4050.95703 3408.39783 4051.40503 3408.69718 4051.88827 3408.93549 4052.39849 3409.10869 4052.92694 3409.2138 4053.4646 3409.24904 4054.00226 3409.2138 4054.53071 3409.10869 4055.04093 3408.93549 4055.52417 3408.69718 4055.97217 3408.39783 4056.37727 3408.04257 4056.73253 3407.63747 4057.03188 3407.18947 4057.27019 3406.70623 4057.44339 3406.19601 4057.5485 3405.66756 4057.60001 3405.46278 4057.71559 3405.33222 4057.87574 3405.26324 4058.05001 3405.26895 4058.2053 3405.34825 4058.31209 3405.48609 4058.3501 3405.65627 4058.3501 3414.60353 4058.31209 3414.77371 4058.2053 3414.91155 4058.05001 3414.99085 Z M 4051.6646 3399.2499 L 4051.6646 3396.9299 4049.3446 3396.9299 4049.3446 3398.20744 4049.37264 3398.45631 4049.44789 3398.67136 4049.56911 3398.86428 4049.73022 3399.02539 4049.92314 3399.14661 4050.13819 3399.22186 4050.38706 3399.2499 4051.6646 3399.2499 Z M 4051.6646 3393.3299 L 4051.6646 3391.0099 4050.38706 3391.0099 4050.13819 3391.03794 4049.92314 3391.11319 4049.73022 3391.23441 4049.56911 3391.39552 4049.44789 3391.58844 4049.37264 3391.80349 4049.3446 3392.05236 4049.3446 3393.3299 4051.6646 3393.3299 Z " stroke-width="0" id="gge204_2"/><polyline points="4025.91 3400.29 4038.62 3400.29 4053.47 3415.13" stroke-width="1.0236" c_shapetype="line" stroke-linecap="round" fill="none" layerid="2" net="" id="gge273_2" locked="0"/><polyline points="4025.91 3400.29 4038.62 3400.29 4053.47 3415.13" stroke-width="1.0236" c_shapetype="line" stroke-linecap="round" fill="none" layerid="2" net="" id="gge282_2" locked="0"/><polyline points="4025.91 3400.29 4038.62 3400.29 4053.47 3415.13" stroke-width="1.0236" c_shapetype="line" stroke-linecap="round" fill="none" layerid="2" net="" id="gge290_2" locked="0"/><g c_partid="part_pad" c_etype="pinpart" layerid="2" id="gge42_2" c_origin="4025.906,3392.413" net="" c_rotation="270" c_width="1.5748" c_height="11.811"><polygon points="4031.811 3391.626 4031.811 3393.2008 4020 3393.2008 4020 3391.626" stroke-width="0"/></g><g c_partid="part_pad" c_etype="pinpart" layerid="2" id="gge47_2" c_origin="4025.906,3396.35" net="" c_rotation="270" c_width="1.5748" c_height="11.811"><polygon points="4031.811 3395.563 4031.811 3397.1378 4020 3397.1378 4020 3395.563" stroke-width="0"/></g><g c_partid="part_pad" c_etype="pinpart" layerid="2" id="gge52_2" c_origin="4025.906,3400.287" net="" c_rotation="270" c_width="1.5748" c_height="11.811"><polygon points="4031.811 3399.5 4031.811 3401.0748 4020 3401.0748 4020 3399.5" stroke-width="0"/></g><g c_partid="part_pad" c_etype="pinpart" layerid="2" id="gge57_2" c_origin="4025.906,3404.224" net="" c_rotation="270" c_width="1.5748" c_height="11.811"><polygon points="4031.811 3403.437 4031.811 3405.0118 4020 3405.0118 4020 3403.437" stroke-width="0"/></g><g c_partid="part_pad" c_etype="pinpart" layerid="2" id="gge62_2" c_origin="4025.906,3408.161" net="" c_rotation="270" c_width="1.5748" c_height="11.811"><polygon points="4031.811 3407.374 4031.811 3408.9488 4020 3408.9488 4020 3407.374" stroke-width="0"/></g><g c_partid="part_pad" c_etype="pinpart" layerid="2" id="gge67_2" c_origin="4025.906,3412.098" net="" c_rotation="270" c_width="1.5748" c_height="11.811"><polygon points="4031.811 3411.311 4031.811 3412.8858 4020 3412.8858 4020 3411.311" stroke-width="0"/></g><g c_partid="part_pad" c_etype="pinpart" layerid="2" id="gge72_2" c_origin="4025.906,3416.035" net="" c_rotation="270" c_width="1.5748" c_height="11.811"><polygon points="4031.811 3415.248 4031.811 3416.8228 4020 3416.8228 4020 3415.248" stroke-width="0"/></g><g c_partid="part_pad" c_etype="pinpart" layerid="2" id="gge77_2" c_origin="4025.906,3419.972" net="" c_rotation="270" c_width="1.5748" c_height="11.811"><polygon points="4031.811 3419.185 4031.811 3420.7598 4020 3420.7598 4020 3419.185" stroke-width="0"/></g><g c_partid="part_pad" c_etype="pinpart" layerid="2" id="gge82_2" c_origin="4025.906,3423.909" net="" c_rotation="270" c_width="1.5748" c_height="11.811"><polygon points="4031.811 3423.122 4031.811 3424.6968 4020 3424.6968 4020 3423.122" stroke-width="0"/></g><g c_partid="part_pad" c_etype="pinpart" layerid="2" id="gge87_2" c_origin="4025.906,3427.846" net="" c_rotation="270" c_width="1.5748" c_height="11.811"><polygon points="4031.811 3427.059 4031.811 3428.6338 4020 3428.6338 4020 3427.059" stroke-width="0"/></g><g c_partid="part_pad" c_etype="pinpart" layerid="2" id="gge92_2" c_origin="4025.906,3383.555" net="" c_rotation="270" c_width="3.937" c_height="11.0236"><polygon points="4031.4173 3381.5866 4031.4173 3385.5236 4020.3937 3385.5236 4020.3937 3381.5866" stroke-width="0"/></g><g c_partid="part_pad" c_etype="pinpart" layerid="2" id="gge97_2" c_origin="4025.906,3436.705" net="" c_rotation="270" c_width="3.937" c_height="11.0236"><polygon points="4031.4173 3434.7362 4031.4173 3438.6732 4020.3937 3438.6732 4020.3937 3434.7362" stroke-width="0"/></g><g c_partid="part_pad" c_etype="pinpart" layerid="11" id="gge9_11" c_origin="4053.465,3395.13" net="" c_rotation="270" c_width="6.2" c_height="6.2"><polygon points="4056.5646 3392.0299 4056.5646 3398.2299 4050.3646 3398.2299 4050.3646 3392.0299" stroke-width="0" c_etype="pad_outer"/></g><g c_partid="part_pad" c_etype="pinpart" layerid="11" id="gge14_11" c_origin="4053.465,3405.13" net="" c_rotation="270" c_width="6.2" c_height="6.2"><ellipse cx="4053.465" cy="3405.13" rx="3.1" ry="3.1" stroke-width="0" c_etype="pad_hole"/></g><g c_partid="part_pad" c_etype="pinpart" layerid="11" id="gge19_11" c_origin="4053.465,3415.13" net="" c_rotation="270" c_width="6.2" c_height="6.2"><ellipse cx="4053.465" cy="3415.13" rx="3.1" ry="3.1" stroke-width="0" c_etype="pad_hole"/></g><g c_partid="part_pad" c_etype="pinpart" layerid="11" id="gge24_11" c_origin="4053.465,3425.13" net="" c_rotation="270" c_width="6.2" c_height="6.2"><ellipse cx="4053.465" cy="3425.13" rx="3.1" ry="3.1" stroke-width="0" c_etype="pad_hole"/></g></g><g id="bottomSignalSolderReal" mask="url(#bottomSignalSolderMask)" fill="#005CB6" stroke="#005CB6"><path d="M 4058.05001 3414.99085 L 4057.87574 3414.99656 4057.71559 3414.92758 4057.60001 3414.79702 4057.5485 3414.59224 4057.44339 3414.06379 4057.27019 3413.55357 4057.03188 3413.07033 4056.73253 3412.62233 4056.37727 3412.21723 4055.97217 3411.86197 4055.52417 3411.56262 4055.04093 3411.32431 4054.53071 3411.15111 4054.00226 3411.046 4053.4646 3411.01076 4052.92694 3411.046 4052.39849 3411.15111 4052.0793 3411.25946 4051.93332 3411.28031 4051.78971 3411.24685 4051.66798 3411.16363 4039.71666 3399.22036 4039.46998 3399.01798 4039.20545 3398.87659 4038.91846 3398.78953 4038.60035 3398.7582 4032.64591 3398.7582 4032.53517 3398.74257 4032.37071 3398.65769 4032.25472 3398.54679 4032.19165 3398.39924 4032.19165 3398.23876 4032.25472 3398.09121 4032.37071 3397.98031 4032.44538 3397.93339 4032.60649 3397.77228 4032.72771 3397.57936 4032.80296 3397.36431 4032.831 3397.11544 4032.831 3396.9942 4029.10825 3396.9942 4029.10825 3398.0801 4029.0778 3398.23317 4028.99109 3398.36294 4028.86132 3398.44965 4028.70825 3398.4801 4023.10275 3398.4801 4022.94968 3398.44965 4022.81991 3398.36294 4022.7332 3398.23317 4022.70275 3398.0801 4022.70275 3396.9942 4021.42 3396.9942 4021.26693 3396.96375 4021.13716 3396.87704 4021.05045 3396.74727 4021.02 3396.5942 4021.02 3396.1068 4021.05045 3395.95373 4021.13716 3395.82396 4021.26693 3395.73725 4021.42 3395.7068 4022.70275 3395.7068 4022.70275 3394.6209 4022.7332 3394.46783 4022.81991 3394.33806 4022.94968 3394.25135 4023.10275 3394.2209 4028.70825 3394.2209 4028.86132 3394.25135 4028.99109 3394.33806 4029.0778 3394.46783 4029.10825 3394.6209 4029.10825 3395.7068 4032.831 3395.7068 4032.831 3395.58556 4032.80296 3395.33669 4032.72771 3395.12164 4032.60649 3394.92872 4032.44538 3394.76761 4032.37071 3394.72069 4032.25472 3394.60979 4032.19165 3394.46224 4032.19165 3394.30176 4032.25472 3394.15421 4032.37071 3394.04331 4032.44538 3393.99639 4032.60649 3393.83528 4032.72771 3393.64236 4032.80296 3393.42731 4032.831 3393.17844 4032.831 3391.64856 4032.80296 3391.39969 4032.72771 3391.18464 4032.60649 3390.99172 4032.44538 3390.83061 4032.25246 3390.70939 4032.03741 3390.63414 4031.78854 3390.6061 4021.42 3390.6061 4021.26693 3390.57565 4021.13716 3390.48894 4021.05045 3390.35917 4021.02 3390.2061 4021.02 3386.9435 4021.05045 3386.79043 4021.13716 3386.66066 4021.26693 3386.57395 4021.42 3386.5435 4031.39434 3386.5435 4031.64321 3386.51546 4031.85826 3386.44021 4032.05118 3386.31899 4032.21229 3386.15788 4032.33351 3385.96496 4032.40876 3385.74991 4032.4368 3385.50104 4032.4368 3381.60896 4032.40876 3381.36009 4032.33351 3381.14504 4032.21229 3380.95212 4032.05118 3380.79101 4031.85826 3380.66979 4031.64321 3380.59454 4031.39434 3380.5665 4021.42 3380.5665 4021.26693 3380.53605 4021.13716 3380.44934 4021.05045 3380.31957 4021.02 3380.1665 4021.02 3372.1798 4021.05045 3372.02673 4021.13716 3371.89696 4021.26693 3371.81025 4021.42 3371.7798 4057.9501 3371.7798 4058.10317 3371.81025 4058.23294 3371.89696 4058.31965 3372.02673 4058.3501 3372.1798 4058.3501 3391.7237 4058.31826 3391.88009 4058.22782 3392.01157 4058.09317 3392.09724 4057.93575 3392.12345 4057.78061 3392.08602 4057.65245 3391.99092 4057.57167 3391.85329 4057.48059 3391.58729 4057.36009 3391.39552 4057.19898 3391.23441 4057.00606 3391.11319 4056.79101 3391.03794 4056.54214 3391.0099 4055.2646 3391.0099 4055.2646 3393.3299 4057.9501 3393.3299 4058.10317 3393.36035 4058.23294 3393.44706 4058.31965 3393.57683 4058.3501 3393.7299 4058.3501 3396.5299 4058.31965 3396.68297 4058.23294 3396.81274 4058.10317 3396.89945 4057.9501 3396.9299 4055.2646 3396.9299 4055.2646 3399.2499 4056.54214 3399.2499 4056.79101 3399.22186 4057.00606 3399.14661 4057.19898 3399.02539 4057.36009 3398.86428 4057.48059 3398.67251 4057.57167 3398.40651 4057.65245 3398.26888 4057.78061 3398.17378 4057.93575 3398.13635 4058.09317 3398.16256 4058.22782 3398.24823 4058.31826 3398.37971 4058.3501 3398.5361 4058.3501 3404.60353 4058.31209 3404.77371 4058.2053 3404.91155 4058.05001 3404.99085 4057.87574 3404.99656 4057.71559 3404.92758 4057.60001 3404.79702 4057.5485 3404.59224 4057.44339 3404.06379 4057.27019 3403.55357 4057.03188 3403.07033 4056.73253 3402.62233 4056.37727 3402.21723 4055.97217 3401.86197 4055.52417 3401.56262 4055.04093 3401.32431 4054.53071 3401.15111 4054.00226 3401.046 4053.4646 3401.01076 4052.92694 3401.046 4052.39849 3401.15111 4051.88827 3401.32431 4051.40503 3401.56262 4050.95703 3401.86197 4050.55193 3402.21723 4050.19667 3402.62233 4049.89732 3403.07033 4049.65901 3403.55357 4049.48581 3404.06379 4049.3807 3404.59224 4049.34546 3405.1299 4049.3807 3405.66756 4049.48581 3406.19601 4049.65901 3406.70623 4049.89732 3407.18947 4050.19667 3407.63747 4050.55193 3408.04257 4050.95703 3408.39783 4051.40503 3408.69718 4051.88827 3408.93549 4052.39849 3409.10869 4052.92694 3409.2138 4053.4646 3409.24904 4054.00226 3409.2138 4054.53071 3409.10869 4055.04093 3408.93549 4055.52417 3408.69718 4055.97217 3408.39783 4056.37727 3408.04257 4056.73253 3407.63747 4057.03188 3407.18947 4057.27019 3406.70623 4057.44339 3406.19601 4057.5485 3405.66756 4057.60001 3405.46278 4057.71559 3405.33222 4057.87574 3405.26324 4058.05001 3405.26895 4058.2053 3405.34825 4058.31209 3405.48609 4058.3501 3405.65627 4058.3501 3414.60353 4058.31209 3414.77371 4058.2053 3414.91155 4058.05001 3414.99085 Z M 4051.6646 3399.2499 L 4051.6646 3396.9299 4049.3446 3396.9299 4049.3446 3398.20744 4049.37264 3398.45631 4049.44789 3398.67136 4049.56911 3398.86428 4049.73022 3399.02539 4049.92314 3399.14661 4050.13819 3399.22186 4050.38706 3399.2499 4051.6646 3399.2499 Z M 4051.6646 3393.3299 L 4051.6646 3391.0099 4050.38706 3391.0099 4050.13819 3391.03794 4049.92314 3391.11319 4049.73022 3391.23441 4049.56911 3391.39552 4049.44789 3391.58844 4049.37264 3391.80349 4049.3446 3392.05236 4049.3446 3393.3299 4051.6646 3393.3299 Z " stroke-width="0" id="gge204_2"/><polyline points="4025.91 3400.29 4038.62 3400.29 4053.47 3415.13" stroke-width="1.0236" c_shapetype="line" stroke-linecap="round" fill="none" layerid="2" net="" id="gge273_2" locked="0"/><polyline points="4025.91 3400.29 4038.62 3400.29 4053.47 3415.13" stroke-width="1.0236" c_shapetype="line" stroke-linecap="round" fill="none" layerid="2" net="" id="gge282_2" locked="0"/><polyline points="4025.91 3400.29 4038.62 3400.29 4053.47 3415.13" stroke-width="1.0236" c_shapetype="line" stroke-linecap="round" fill="none" layerid="2" net="" id="gge290_2" locked="0"/><g c_partid="part_pad" c_etype="pinpart" layerid="2" id="gge42_2" c_origin="4025.906,3392.413" net="" c_rotation="270" c_width="1.5748" c_height="11.811"><polygon points="4031.811 3391.626 4031.811 3393.2008 4020 3393.2008 4020 3391.626" stroke-width="0"/></g><g c_partid="part_pad" c_etype="pinpart" layerid="2" id="gge47_2" c_origin="4025.906,3396.35" net="" c_rotation="270" c_width="1.5748" c_height="11.811"><polygon points="4031.811 3395.563 4031.811 3397.1378 4020 3397.1378 4020 3395.563" stroke-width="0"/></g><g c_partid="part_pad" c_etype="pinpart" layerid="2" id="gge52_2" c_origin="4025.906,3400.287" net="" c_rotation="270" c_width="1.5748" c_height="11.811"><polygon points="4031.811 3399.5 4031.811 3401.0748 4020 3401.0748 4020 3399.5" stroke-width="0"/></g><g c_partid="part_pad" c_etype="pinpart" layerid="2" id="gge57_2" c_origin="4025.906,3404.224" net="" c_rotation="270" c_width="1.5748" c_height="11.811"><polygon points="4031.811 3403.437 4031.811 3405.0118 4020 3405.0118 4020 3403.437" stroke-width="0"/></g><g c_partid="part_pad" c_etype="pinpart" layerid="2" id="gge62_2" c_origin="4025.906,3408.161" net="" c_rotation="270" c_width="1.5748" c_height="11.811"><polygon points="4031.811 3407.374 4031.811 3408.9488 4020 3408.9488 4020 3407.374" stroke-width="0"/></g><g c_partid="part_pad" c_etype="pinpart" layerid="2" id="gge67_2" c_origin="4025.906,3412.098" net="" c_rotation="270" c_width="1.5748" c_height="11.811"><polygon points="4031.811 3411.311 4031.811 3412.8858 4020 3412.8858 4020 3411.311" stroke-width="0"/></g><g c_partid="part_pad" c_etype="pinpart" layerid="2" id="gge72_2" c_origin="4025.906,3416.035" net="" c_rotation="270" c_width="1.5748" c_height="11.811"><polygon points="4031.811 3415.248 4031.811 3416.8228 4020 3416.8228 4020 3415.248" stroke-width="0"/></g><g c_partid="part_pad" c_etype="pinpart" layerid="2" id="gge77_2" c_origin="4025.906,3419.972" net="" c_rotation="270" c_width="1.5748" c_height="11.811"><polygon points="4031.811 3419.185 4031.811 3420.7598 4020 3420.7598 4020 3419.185" stroke-width="0"/></g><g c_partid="part_pad" c_etype="pinpart" layerid="2" id="gge82_2" c_origin="4025.906,3423.909" net="" c_rotation="270" c_width="1.5748" c_height="11.811"><polygon points="4031.811 3423.122 4031.811 3424.6968 4020 3424.6968 4020 3423.122" stroke-width="0"/></g><g c_partid="part_pad" c_etype="pinpart" layerid="2" id="gge87_2" c_origin="4025.906,3427.846" net="" c_rotation="270" c_width="1.5748" c_height="11.811"><polygon points="4031.811 3427.059 4031.811 3428.6338 4020 3428.6338 4020 3427.059" stroke-width="0"/></g><g c_partid="part_pad" c_etype="pinpart" layerid="2" id="gge92_2" c_origin="4025.906,3383.555" net="" c_rotation="270" c_width="3.937" c_height="11.0236"><polygon points="4031.4173 3381.5866 4031.4173 3385.5236 4020.3937 3385.5236 4020.3937 3381.5866" stroke-width="0"/></g><g c_partid="part_pad" c_etype="pinpart" layerid="2" id="gge97_2" c_origin="4025.906,3436.705" net="" c_rotation="270" c_width="3.937" c_height="11.0236"><polygon points="4031.4173 3434.7362 4031.4173 3438.6732 4020.3937 3438.6732 4020.3937 3434.7362" stroke-width="0"/></g><g c_partid="part_pad" c_etype="pinpart" layerid="11" id="gge9_11" c_origin="4053.465,3395.13" net="" c_rotation="270" c_width="6.2" c_height="6.2"><polygon points="4056.5646 3392.0299 4056.5646 3398.2299 4050.3646 3398.2299 4050.3646 3392.0299" stroke-width="0" c_etype="pad_outer"/></g><g c_partid="part_pad" c_etype="pinpart" layerid="11" id="gge14_11" c_origin="4053.465,3405.13" net="" c_rotation="270" c_width="6.2" c_height="6.2"><ellipse cx="4053.465" cy="3405.13" rx="3.1" ry="3.1" stroke-width="0" c_etype="pad_hole"/></g><g c_partid="part_pad" c_etype="pinpart" layerid="11" id="gge19_11" c_origin="4053.465,3415.13" net="" c_rotation="270" c_width="6.2" c_height="6.2"><ellipse cx="4053.465" cy="3415.13" rx="3.1" ry="3.1" stroke-width="0" c_etype="pad_hole"/></g><g c_partid="part_pad" c_etype="pinpart" layerid="11" id="gge24_11" c_origin="4053.465,3425.13" net="" c_rotation="270" c_width="6.2" c_height="6.2"><ellipse cx="4053.465" cy="3425.13" rx="3.1" ry="3.1" stroke-width="0" c_etype="pad_hole"/></g></g><g id="bottomSilkLayer" fill="#FFFFFF" stroke="#FFFFFF"><g c_partid="part_pcbtext" c_etype="pinpart" c_origin="4046.5,3427.5" c_rotation="0" c_mirror="1" id="gge238_4" locked="0" layerid="4" c_shapetype="group"><path c_fontsize="3.937" c_fontfamily="" c_text="VCC" d="M 4046.5 3423.53 L 4045.07 3427.29 M 4043.64 3423.53 L 4045.07 3427.29 M 4039.77 3424.42 L 4039.95 3424.06 L 4040.31 3423.71 L 4040.67 3423.53 L 4041.38 3423.53 L 4041.74 3423.71 L 4042.1 3424.06 L 4042.28 3424.42 L 4042.46 3424.96 L 4042.46 3425.85 L 4042.28 3426.39 L 4042.1 3426.75 L 4041.74 3427.11 L 4041.38 3427.29 L 4040.67 3427.29 L 4040.31 3427.11 L 4039.95 3426.75 L 4039.77 3426.39 M 4035.91 3424.42 L 4036.08 3424.06 L 4036.44 3423.71 L 4036.8 3423.53 L 4037.52 3423.53 L 4037.87 3423.71 L 4038.23 3424.06 L 4038.41 3424.42 L 4038.59 3424.96 L 4038.59 3425.85 L 4038.41 3426.39 L 4038.23 3426.75 L 4037.87 3427.11 L 4037.52 3427.29 L 4036.8 3427.29 L 4036.44 3427.11 L 4036.08 3426.75 L 4035.91 3426.39" fill="none" stroke-width="0.5906"/></g><g c_partid="part_pcbtext" c_etype="pinpart" c_origin="4046,3417.5" c_rotation="0" c_mirror="1" id="gge242_4" locked="0" layerid="4" c_shapetype="group"><path c_fontsize="3.937" c_fontfamily="" c_text="SCL" d="M 4043.49 3414.06 L 4043.85 3413.71 L 4044.39 3413.53 L 4045.11 3413.53 L 4045.64 3413.71 L 4046 3414.06 L 4046 3414.42 L 4045.82 3414.78 L 4045.64 3414.96 L 4045.28 3415.14 L 4044.21 3415.5 L 4043.85 3415.67 L 4043.67 3415.85 L 4043.49 3416.21 L 4043.49 3416.75 L 4043.85 3417.11 L 4044.39 3417.29 L 4045.11 3417.29 L 4045.64 3417.11 L 4046 3416.75 M 4039.63 3414.42 L 4039.81 3414.06 L 4040.17 3413.71 L 4040.52 3413.53 L 4041.24 3413.53 L 4041.6 3413.71 L 4041.96 3414.06 L 4042.13 3414.42 L 4042.31 3414.96 L 4042.31 3415.85 L 4042.13 3416.39 L 4041.96 3416.75 L 4041.6 3417.11 L 4041.24 3417.29 L 4040.52 3417.29 L 4040.17 3417.11 L 4039.81 3416.75 L 4039.63 3416.39 M 4038.45 3413.53 L 4038.45 3417.29 M 4038.45 3417.29 L 4036.3 3417.29" fill="none" stroke-width="0.5906"/></g><g c_partid="part_pcbtext" c_etype="pinpart" c_origin="4046,3407.5" c_rotation="0" c_mirror="1" id="gge246_4" locked="0" layerid="4" c_shapetype="group"><path c_fontsize="3.937" c_fontfamily="" c_text="SDA" d="M 4043.49 3404.06 L 4043.85 3403.71 L 4044.39 3403.53 L 4045.11 3403.53 L 4045.64 3403.71 L 4046 3404.06 L 4046 3404.42 L 4045.82 3404.78 L 4045.64 3404.96 L 4045.28 3405.14 L 4044.21 3405.5 L 4043.85 3405.67 L 4043.67 3405.85 L 4043.49 3406.21 L 4043.49 3406.75 L 4043.85 3407.11 L 4044.39 3407.29 L 4045.11 3407.29 L 4045.64 3407.11 L 4046 3406.75 M 4042.31 3403.53 L 4042.31 3407.29 M 4042.31 3403.53 L 4041.06 3403.53 L 4040.52 3403.71 L 4040.17 3404.06 L 4039.99 3404.42 L 4039.81 3404.96 L 4039.81 3405.85 L 4039.99 3406.39 L 4040.17 3406.75 L 4040.52 3407.11 L 4041.06 3407.29 L 4042.31 3407.29 M 4037.2 3403.53 L 4038.63 3407.29 M 4037.2 3403.53 L 4035.76 3407.29 M 4038.09 3406.03 L 4036.3 3406.03" fill="none" stroke-width="0.5906"/></g><g c_partid="part_pcbtext" c_etype="pinpart" c_origin="4046,3397" c_rotation="0" c_mirror="1" id="gge250_4" locked="0" layerid="4" c_shapetype="group"><path c_fontsize="3.937" c_fontfamily="" c_text="GND" d="M 4043.32 3393.92 L 4043.49 3393.56 L 4043.85 3393.21 L 4044.21 3393.03 L 4044.93 3393.03 L 4045.28 3393.21 L 4045.64 3393.56 L 4045.82 3393.92 L 4046 3394.46 L 4046 3395.35 L 4045.82 3395.89 L 4045.64 3396.25 L 4045.28 3396.61 L 4044.93 3396.79 L 4044.21 3396.79 L 4043.85 3396.61 L 4043.49 3396.25 L 4043.32 3395.89 L 4043.32 3395.35 M 4044.21 3395.35 L 4043.32 3395.35 M 4042.13 3393.03 L 4042.13 3396.79 M 4042.13 3393.03 L 4039.63 3396.79 M 4039.63 3393.03 L 4039.63 3396.79 M 4038.45 3393.03 L 4038.45 3396.79 M 4038.45 3393.03 L 4037.2 3393.03 L 4036.66 3393.21 L 4036.3 3393.56 L 4036.12 3393.92 L 4035.94 3394.46 L 4035.94 3395.35 L 4036.12 3395.89 L 4036.3 3396.25 L 4036.66 3396.61 L 4037.2 3396.79 L 4038.45 3396.79" fill="none" stroke-width="0.5906"/></g></g></g></g></svg>